<svg  viewBox="0 0 1096 326" fill="none" xmlns="http://www.w3.org/2000/svg">
<path d="M338.4 210C338.6 210.8 338.7 211.4 338.7 211.8C338.7 213.1 338.25 214.15 337.35 214.95C336.45 215.75 335.4 216.15 334.2 216.15C333.2 216.15 332.3 215.9 331.5 215.4C330.8 214.8 330.25 214.05 329.85 213.15L318.6 185.7H269.85L258.75 213.15C257.95 215.15 256.6 216.15 254.7 216.15C253.3 216.15 252.25 215.8 251.55 215.1C250.85 214.4 250.45 213.45 250.35 212.25V211.8C250.35 211.2 250.4 210.75 250.5 210.45L290.1 113.55C290.9 111.55 292.4 110.55 294.6 110.55C295.6 110.55 296.45 110.85 297.15 111.45C297.95 111.95 298.55 112.65 298.95 113.55L338.4 210ZM273.3 176.85H315L294 125.55L273.3 176.85ZM417.219 139.05C418.519 139.05 419.569 139.5 420.369 140.4C421.269 141.3 421.719 142.4 421.719 143.7V241.5C421.719 242.8 421.269 243.85 420.369 244.65C419.569 245.55 418.519 246 417.219 246C415.919 246 414.819 245.55 413.919 244.65C413.119 243.85 412.719 242.8 412.719 241.5V201C410.219 205.6 406.469 209.5 401.469 212.7C396.569 215.9 391.119 217.5 385.119 217.5C378.519 217.5 372.519 215.8 367.119 212.4C361.819 208.9 357.619 204.1 354.519 198C351.419 191.9 349.869 185.05 349.869 177.45C349.869 169.95 351.419 163.15 354.519 157.05C357.619 150.95 361.819 146.2 367.119 142.8C372.519 139.3 378.469 137.55 384.969 137.55C390.869 137.55 396.319 139.05 401.319 142.05C406.319 144.95 410.119 148.75 412.719 153.45V143.7C412.719 142.4 413.119 141.3 413.919 140.4C414.819 139.5 415.919 139.05 417.219 139.05ZM386.019 209.1C391.219 209.1 395.869 207.75 399.969 205.05C404.169 202.35 407.419 198.6 409.719 193.8C412.119 188.9 413.319 183.45 413.319 177.45C413.319 171.55 412.119 166.2 409.719 161.4C407.419 156.6 404.169 152.85 399.969 150.15C395.869 147.35 391.219 145.95 386.019 145.95C380.819 145.95 376.119 147.35 371.919 150.15C367.819 152.85 364.569 156.6 362.169 161.4C359.869 166.2 358.719 171.55 358.719 177.45C358.719 183.45 359.869 188.85 362.169 193.65C364.569 198.45 367.819 202.25 371.919 205.05C376.119 207.75 380.819 209.1 386.019 209.1ZM502.504 139.8C503.804 139.8 504.854 140.25 505.654 141.15C506.554 141.95 507.004 143 507.004 144.3V186.6C507.004 196.4 504.254 203.95 498.754 209.25C493.254 214.45 485.654 217.05 475.954 217.05C466.354 217.05 458.804 214.45 453.304 209.25C447.904 203.95 445.204 196.4 445.204 186.6V144.3C445.204 143 445.604 141.95 446.404 141.15C447.304 140.25 448.404 139.8 449.704 139.8C451.004 139.8 452.054 140.25 452.854 141.15C453.754 141.95 454.204 143 454.204 144.3V186.6C454.204 193.8 456.104 199.3 459.904 203.1C463.704 206.8 469.054 208.65 475.954 208.65C482.954 208.65 488.354 206.8 492.154 203.1C496.054 199.3 498.004 193.8 498.004 186.6V144.3C498.004 143 498.404 141.95 499.204 141.15C500.104 140.25 501.204 139.8 502.504 139.8ZM592.854 139.35C594.154 139.35 595.204 139.8 596.004 140.7C596.904 141.6 597.354 142.7 597.354 144V211.5C597.354 212.8 596.904 213.9 596.004 214.8C595.204 215.6 594.154 216 592.854 216C591.554 216 590.454 215.6 589.554 214.8C588.754 213.9 588.354 212.8 588.354 211.5V201.45C585.854 205.95 582.104 209.75 577.104 212.85C572.104 215.95 566.654 217.5 560.754 217.5C554.054 217.5 548.004 215.75 542.604 212.25C537.304 208.75 533.104 203.95 530.004 197.85C527.004 191.75 525.504 184.9 525.504 177.3C525.504 169.7 527.054 162.9 530.154 156.9C533.254 150.8 537.454 146.05 542.754 142.65C548.154 139.25 554.104 137.55 560.604 137.55C566.604 137.55 572.104 139 577.104 141.9C582.104 144.8 585.854 148.6 588.354 153.3V144C588.354 142.7 588.754 141.6 589.554 140.7C590.454 139.8 591.554 139.35 592.854 139.35ZM561.654 209.1C566.854 209.1 571.504 207.75 575.604 205.05C579.804 202.25 583.054 198.45 585.354 193.65C587.754 188.75 588.954 183.3 588.954 177.3C588.954 171.5 587.754 166.2 585.354 161.4C583.054 156.6 579.804 152.85 575.604 150.15C571.504 147.35 566.854 145.95 561.654 145.95C556.454 145.95 551.754 147.3 547.554 150C543.454 152.7 540.204 156.45 537.804 161.25C535.504 165.95 534.354 171.3 534.354 177.3C534.354 183.3 535.504 188.75 537.804 193.65C540.104 198.45 543.304 202.25 547.404 205.05C551.604 207.75 556.354 209.1 561.654 209.1ZM707.838 138.75C716.838 138.75 723.438 141.55 727.638 147.15C731.938 152.65 734.088 159.95 734.088 169.05V211.5C734.088 212.8 733.638 213.9 732.738 214.8C731.938 215.6 730.888 216 729.588 216C728.288 216 727.188 215.6 726.288 214.8C725.488 213.9 725.088 212.8 725.088 211.5V169.5C725.088 162.9 723.488 157.55 720.288 153.45C717.188 149.25 712.338 147.15 705.738 147.15C701.538 147.15 697.538 148.15 693.738 150.15C690.038 152.15 687.038 154.9 684.738 158.4C682.438 161.8 681.288 165.5 681.288 169.5V211.5C681.288 212.8 680.838 213.9 679.938 214.8C679.138 215.6 678.088 216 676.788 216C675.488 216 674.388 215.6 673.488 214.8C672.688 213.9 672.288 212.8 672.288 211.5V169.05C672.288 162.55 670.788 157.3 667.788 153.3C664.788 149.2 660.088 147.15 653.688 147.15C649.588 147.15 645.688 148.15 641.988 150.15C638.388 152.15 635.438 154.85 633.138 158.25C630.938 161.55 629.838 165.15 629.838 169.05V211.5C629.838 212.8 629.388 213.9 628.488 214.8C627.688 215.6 626.638 216 625.338 216C624.038 216 622.938 215.6 622.038 214.8C621.238 213.9 620.838 212.8 620.838 211.5V144.3C620.838 143 621.238 141.95 622.038 141.15C622.938 140.25 624.038 139.8 625.338 139.8C626.638 139.8 627.688 140.25 628.488 141.15C629.388 141.95 629.838 143 629.838 144.3V153C632.538 148.9 636.188 145.5 640.788 142.8C645.388 140.1 650.238 138.75 655.338 138.75C661.138 138.75 666.138 140.15 670.338 142.95C674.538 145.75 677.538 149.85 679.338 155.25C681.438 150.85 685.288 147 690.888 143.7C696.488 140.4 702.138 138.75 707.838 138.75ZM819.905 139.35C821.205 139.35 822.255 139.8 823.055 140.7C823.955 141.6 824.405 142.7 824.405 144V211.5C824.405 212.8 823.955 213.9 823.055 214.8C822.255 215.6 821.205 216 819.905 216C818.605 216 817.505 215.6 816.605 214.8C815.805 213.9 815.405 212.8 815.405 211.5V201.45C812.905 205.95 809.155 209.75 804.155 212.85C799.155 215.95 793.705 217.5 787.805 217.5C781.105 217.5 775.055 215.75 769.655 212.25C764.355 208.75 760.155 203.95 757.055 197.85C754.055 191.75 752.555 184.9 752.555 177.3C752.555 169.7 754.105 162.9 757.205 156.9C760.305 150.8 764.505 146.05 769.805 142.65C775.205 139.25 781.155 137.55 787.655 137.55C793.655 137.55 799.155 139 804.155 141.9C809.155 144.8 812.905 148.6 815.405 153.3V144C815.405 142.7 815.805 141.6 816.605 140.7C817.505 139.8 818.605 139.35 819.905 139.35ZM788.705 209.1C793.905 209.1 798.555 207.75 802.655 205.05C806.855 202.25 810.105 198.45 812.405 193.65C814.805 188.75 816.005 183.3 816.005 177.3C816.005 171.5 814.805 166.2 812.405 161.4C810.105 156.6 806.855 152.85 802.655 150.15C798.555 147.35 793.905 145.95 788.705 145.95C783.505 145.95 778.805 147.3 774.605 150C770.505 152.7 767.255 156.45 764.855 161.25C762.555 165.95 761.405 171.3 761.405 177.3C761.405 183.3 762.555 188.75 764.855 193.65C767.155 198.45 770.355 202.25 774.455 205.05C778.655 207.75 783.405 209.1 788.705 209.1ZM883.739 137.55C885.739 137.55 887.539 137.95 889.139 138.75C890.739 139.55 891.539 140.75 891.539 142.35C891.539 143.75 891.139 144.9 890.339 145.8C889.539 146.6 888.589 147 887.489 147C886.989 147 885.989 146.75 884.489 146.25C883.089 145.75 881.739 145.5 880.439 145.5C876.739 145.5 873.039 146.95 869.339 149.85C865.739 152.65 862.739 156.3 860.339 160.8C858.039 165.3 856.889 169.85 856.889 174.45V211.5C856.889 212.8 856.439 213.9 855.539 214.8C854.739 215.6 853.689 216 852.389 216C851.089 216 849.989 215.6 849.089 214.8C848.289 213.9 847.889 212.8 847.889 211.5V144.3C847.889 143 848.289 141.95 849.089 141.15C849.989 140.25 851.089 139.8 852.389 139.8C853.689 139.8 854.739 140.25 855.539 141.15C856.439 141.95 856.889 143 856.889 144.3V157.5C859.189 151.8 862.639 147.1 867.239 143.4C871.939 139.6 877.439 137.65 883.739 137.55ZM914.304 211.5C914.304 212.8 913.854 213.9 912.954 214.8C912.154 215.6 911.104 216 909.804 216C908.504 216 907.404 215.6 906.504 214.8C905.704 213.9 905.304 212.8 905.304 211.5V142.5C905.304 141.2 905.704 140.15 906.504 139.35C907.404 138.45 908.504 138 909.804 138C911.104 138 912.154 138.45 912.954 139.35C913.854 140.15 914.304 141.2 914.304 142.5V211.5ZM909.804 127.95C907.804 127.95 906.254 127.5 905.154 126.6C904.054 125.6 903.504 124.2 903.504 122.4V120.9C903.504 119.1 904.054 117.75 905.154 116.85C906.354 115.85 907.954 115.35 909.954 115.35C913.954 115.35 915.954 117.2 915.954 120.9V122.4C915.954 124.2 915.404 125.6 914.304 126.6C913.304 127.5 911.804 127.95 909.804 127.95ZM973.834 137.55C983.134 137.55 989.934 140.3 994.234 145.8C998.634 151.2 1000.83 158.4 1000.83 167.4V211.5C1000.83 212.8 1000.38 213.9 999.484 214.8C998.584 215.6 997.534 216 996.334 216C995.034 216 993.934 215.6 993.034 214.8C992.234 213.9 991.834 212.8 991.834 211.5V167.85C991.834 161.35 990.184 156.1 986.884 152.1C983.684 148 978.684 145.95 971.884 145.95C967.584 145.95 963.484 146.95 959.584 148.95C955.784 150.95 952.684 153.65 950.284 157.05C947.884 160.35 946.684 163.95 946.684 167.85V211.5C946.684 212.8 946.234 213.9 945.334 214.8C944.534 215.6 943.484 216 942.184 216C940.884 216 939.784 215.6 938.884 214.8C938.084 213.9 937.684 212.8 937.684 211.5V144.3C937.684 143 938.084 141.95 938.884 141.15C939.784 140.25 940.884 139.8 942.184 139.8C943.484 139.8 944.534 140.25 945.334 141.15C946.234 141.95 946.684 143 946.684 144.3V152.55C949.384 148.25 953.234 144.7 958.234 141.9C963.334 139 968.534 137.55 973.834 137.55ZM1089.2 173.25C1089.2 174.45 1088.75 175.5 1087.85 176.4C1086.95 177.2 1085.9 177.6 1084.7 177.6H1028C1028 183.6 1029.2 189 1031.6 193.8C1034.1 198.5 1037.6 202.25 1042.1 205.05C1046.7 207.75 1052.1 209.1 1058.3 209.1C1063.1 209.1 1067.4 208.1 1071.2 206.1C1075 204.1 1078.05 201.55 1080.35 198.45C1081.45 197.55 1082.5 197.1 1083.5 197.1C1084.5 197.1 1085.4 197.5 1086.2 198.3C1087 199.1 1087.4 200 1087.4 201C1087.4 202.1 1086.9 203.15 1085.9 204.15C1082.7 208.05 1078.65 211.25 1073.75 213.75C1068.95 216.25 1063.85 217.5 1058.45 217.5C1050.75 217.5 1043.95 215.85 1038.05 212.55C1032.15 209.25 1027.55 204.65 1024.25 198.75C1020.95 192.75 1019.3 185.85 1019.3 178.05C1019.3 169.85 1020.9 162.7 1024.1 156.6C1027.4 150.4 1031.75 145.7 1037.15 142.5C1042.55 139.2 1048.3 137.55 1054.4 137.55C1060.4 137.55 1066 138.95 1071.2 141.75C1076.5 144.55 1080.8 148.65 1084.1 154.05C1087.4 159.45 1089.1 165.85 1089.2 173.25ZM1054.4 146.25C1048.6 146.25 1043.2 148.25 1038.2 152.25C1033.3 156.25 1030.15 162 1028.75 169.5H1079.9V168.3C1079.4 163.8 1077.9 159.9 1075.4 156.6C1072.9 153.2 1069.75 150.65 1065.95 148.95C1062.25 147.15 1058.4 146.25 1054.4 146.25Z" fill="url(#paint0_linear)"/>
<path d="M109.952 14.5045L101 0L92.0484 14.5045L6.29127 153.47L0.40863 163H201.591L195.709 153.47L109.952 14.5045Z" fill="#893AF4"/>
<path d="M6.29127 172.53L92.0484 311.496L101 326L109.952 311.496L195.709 172.53L201.591 163H0.40863L6.29127 172.53Z" fill="#893AF4"/>
<path d="M101 326L109.952 311.496L195.709 172.53L201.591 163H101V326Z" fill="#632FF5"/>
<path d="M109.952 14.5045L101 0V163H201.591L195.709 153.47L109.952 14.5045Z" fill="#632FF5"/>
<path d="M195.709 153.47H141.039L109.952 14.5045L101 0L92.0484 14.5045L60.9618 153.47H6.29191L0.40863 163L6.29191 172.53H60.9618L92.0484 311.496L101 326L109.952 311.496L141.038 172.53H195.708L201.591 163L195.709 153.47ZM101 264.195L80.4977 172.53H121.502L101 264.195ZM80.4977 153.47L101 61.805L121.502 153.47H80.4977V153.47Z" fill="white"/>
<defs>
<linearGradient id="paint0_linear" x1="671" y1="66" x2="671" y2="254" gradientUnits="userSpaceOnUse">
<stop stop-color="#893AF4"/>
<stop offset="1" stop-color="#632FF5"/>
</linearGradient>
</defs>
</svg>
