<svg height="512pt" viewBox="0 0 512 512" width="512pt" xmlns="http://www.w3.org/2000/svg"><path d="m502 109.648438h-59.648438v-20h59.648438c5.523438 0 10-4.476563 10-10 0-5.523438-4.476562-10-10-10h-59.648438v-12.648438c0-5.523438-4.476562-10-10-10-5.523437 0-10 4.476562-10 10v112.824219c0 53.03125-43.144531 96.175781-96.175781 96.175781h-40.175781v-20h40.175781c42.003907 0 76.175781-34.171875 76.175781-76.175781v-159.824219c0-5.523438-4.476562-10-10-10-5.523437 0-10 4.476562-10 10v59.648438h-46.460937c-60.59375 0-109.890625 49.296874-109.890625 109.890624v46.460938h-40.175781c-15.953125 0-31.425781 3.191406-45.980469 9.488281-5.070312 2.191407-7.402344 8.078125-5.210938 13.148438 1.632813 3.773437 5.316407 6.03125 9.183594 6.03125 1.324219 0 2.671875-.265625 3.964844-.824219 12.035156-5.203125 24.835938-7.84375 38.042969-7.84375h40.175781v20h-40.175781c-42.003907 0-76.175781 34.171875-76.175781 76.175781v159.824219c0 5.523438 4.476562 10 10 10 5.523437 0 10-4.476562 10-10v-59.648438h40.175781c64.058593 0 116.175781-52.117187 116.175781-116.175781v-40.175781h40.175781c64.058594 0 116.175781-52.117188 116.175781-116.175781v-40.175781h59.648438c5.523438 0 10-4.476563 10-10 0-5.523438-4.476562-10-10-10zm-119.648438 47.066406-27.066406-27.066406h27.066406zm-54.664062-26.378906 53.007812 53.007812c-1.644531 6.636719-4.472656 12.808594-8.246093 18.28125l-63.832031-63.832031c5.664062-3.714844 12.125-6.304688 19.070312-7.457031zm30.675781 85.488281c-5.425781 3.808593-11.542969 6.691406-18.132812 8.394531l-53.445313-53.441406c1.226563-6.894532 3.863282-13.304688 7.617188-18.914063zm-72.363281-17.550781 27.726562 27.726562h-27.726562zm-156.351562 155.679687 28.398437 28.398437h-28.398437zm54.753906 26.46875-52.824219-52.824219c1.761719-6.550781 4.683594-12.625 8.527344-18.003906l62.300781 62.300781c-5.378906 3.84375-11.453125 6.765625-18.003906 8.527344zm-11.550782-92.894531 51.621094 51.621094c-1.585937 6.679687-4.355468 12.910156-8.09375 18.433593l-61.964844-61.960937c5.527344-3.738282 11.757813-6.507813 18.4375-8.09375zm53.148438 24.863281-26.390625-26.390625h26.390625zm40 13.785156c0 53.03125-43.144531 96.175781-96.175781 96.175781h-40.175781v-20h40.175781c42.003906 0 76.175781-34.171874 76.175781-76.175781v-146.636719c0-49.566406 40.324219-89.890624 89.890625-89.890624h46.460937v20h-46.460937c-19.078125 0-36.390625 7.691406-49.015625 20.128906-.070312.070312-.148438.128906-.21875.199218-.023438.023438-.046875.050782-.070312.078126-12.707032 12.664062-20.585938 30.171874-20.585938 49.484374zm0 0"/><path d="m117.035156 275.03125.046875-.046875c3.828125-3.972656 3.765625-10.335937-.199219-14.171875-3.964843-3.835938-10.328124-3.695312-14.171874.261719s-3.796876 10.324219.152343 14.171875c1.933594 1.882812 4.445313 2.816406 6.957031 2.816406 2.621094 0 5.246094-1.015625 7.214844-3.03125zm0 0"/><path d="m94.082031 287.839844c-4.988281-2.363282-10.953125-.234375-13.316406 4.757812-7.378906 15.574219-11.117187 32.253906-11.117187 49.578125v40.175781h-59.648438c-5.523438 0-10 4.476563-10 10 0 5.523438 4.476562 10 10 10h59.648438v20h-59.648438c-5.523438 0-10 4.476563-10 10 0 5.523438 4.476562 10 10 10h59.648438v59.648438c0 5.523438 4.476562 10 10 10 5.523437 0 10-4.476562 10-10v-159.824219c0-14.339843 3.089843-28.140625 9.191406-41.019531 2.363281-4.988281.234375-10.953125-4.757813-13.316406zm0 0"/><path d="m432.351562 20c2.628907 0 5.207032-1.070312 7.070313-2.929688 1.859375-1.859374 2.929687-4.441406 2.929687-7.070312s-1.070312-5.210938-2.929687-7.070312c-1.863281-1.859376-4.441406-2.929688-7.070313-2.929688-2.632812 0-5.210937 1.070312-7.070312 2.929688-1.859375 1.859374-2.929688 4.441406-2.929688 7.070312 0 2.640625 1.070313 5.210938 2.929688 7.070312 1.859375 1.859376 4.4375 2.929688 7.070312 2.929688zm0 0"/></svg>