<svg enable-background="new 0 0 100 100" height="512" viewBox="0 0 100 100" width="512" xmlns="http://www.w3.org/2000/svg"><path d="m75.6906662 82.3276749c-.3951492 2.1469574-1.4676666 4.1641083-3.0265961 5.6922836 2.5017242.3337936 5.0183716-.9048462 6.7694321-2.7224808 1.7510605-1.8176422 2.8511734-4.1559906 3.791748-6.4980698.3020554-.7521362.6604614-1.5840988 1.40625-1.9014893.7457962-.3173904 1.420639.1640472 1.4801407 1.1483307.1116409-1.5056229.2232742-3.0112534.3349152-4.5168762 1.1373291.6791153 2.2746582 1.3582382 3.4119873 2.0373611-1.6329269-2.6685257-3.329277-5.608696-2.9472351-8.7137756.2052002-1.6678162.9991913-3.1973648 1.7798233-4.6854248 1.466095-2.794693 2.9664688-5.715126 3.0532761-8.8698349.090126-3.2750626-1.3534927-6.3738327-2.7652588-9.3303604-1.0809021-2.2636185-1.1775131-4.8224144-1.9071808-7.222393.2191772-.0580025.4383545-.1160049.6575317-.1740036-2.8460541-6.957325-5.9657059-13.916254-10.6978073-19.7567596-4.7321091-5.8405075-11.2985306-10.5233569-18.7443123-11.5552063-2.7211342-.3771-5.4835396-.2632995-8.2282906-.1487265-5.6126518.2342873-11.6618652.6277108-16.0005722 4.1959562-5.2900009 4.3506117-10.5992966 8.4767342-14.54072 14.0782623-2.0028572 2.8464527-3.7761736 5.8543682-5.2970762 8.9849548-1.3847485 2.8503342-2.5607538 5.8035698-3.4806957 8.8359985-1.2104416 3.9900131-1.3122854 8.2030029-1.856513 12.3369102-.550725 4.1832504-1.0940256 8.4969521.0044403 12.5708046 1.0077477 3.7373962 3.3170233 6.9671249 5.5821295 10.1060715-.9554815-1.2850342-1.2248468-3.0513916-.6958179-4.5628204 2.0914822 1.856926 3.3760881 4.593132 3.4687719 7.3884659.0761108 2.2954865 2.2214355 4.1434555 3.1196938 6.2572632.0152416-.6773376.0304852-1.3546829.0457268-2.0320206 1.0575294 2.4411774 2.115057 4.8823624 3.1725845 7.3235474.1439667-.7628403.2879333-1.5256729.4319019-2.2885132 2.208353 2.6394348 4.8547783 4.9114685 7.7980614 6.69487-.8601055-1.3786316-1.7202129-2.7572556-2.5803185-4.1358871 1.8136139 1.3055344 3.6272278 2.6110764 5.4408417 3.9166107-1.4008827-2.6373596-2.8017693-5.2747116-4.2026539-7.9120636.6966667.6402664 1.3933334 1.2805328 2.0899982 1.9208069-1.4763641-5.3249664-2.9527283-10.6499329-4.4290924-15.9749069-.5066624-1.8274231-1.0170116-3.6795807-1.0426216-5.5757675-.02561-1.8961945.4880867-3.873291 1.7908993-5.2512894 1.0832024-1.1457138 2.7706642-1.4542503 4.0676365-2.3508263-.2707672.8222733-.5415382 1.6445465-.8123093 2.4668198 2.3080368-1.745388 4.5497017-3.5785408 6.7185249-5.4941673-.8834419 1.6000023-1.7668839 3.2000046-2.6503296 4.8000107 3.5178452-1.8802223 7.0356903-3.7604408 10.5535316-5.6406593-1.4934158 1.8071365-2.9868355 3.6142731-4.4802513 5.4214134 4.1127434-1.3964157 7.829361-3.939846 10.6202316-7.2678604-.8129387 1.8853416-1.6258812 3.7706833-2.4388237 5.6560249 8.4010353-3.4401894 15.0451202-10.9076767 17.4849091-19.6518021 1.5242767 5.4548111.416893 11.5824471-2.9201965 16.1587143 2.2334747-1.4610786 3.9484177-3.698307 4.7791595-6.2346497 1.5522919 3.6171188 2.5781631 7.4596519 3.0353165 11.3691483.2892685-2.5929375.578537-5.1858788.8678055-7.7788162 2.1798706 2.9319229 3.59478 6.4275436 4.0680008 10.0502586.8306809 6.3591538-.9197464 12.5293198-2.0805969 18.8365632z" fill="#293b44"/><g fill="#344d5b"><path d="m64.0090256 20.2334385c-1.7738152 10.088356-5.5026474 19.8292599-10.9187737 28.5233326.4241676-3.0047951.8483315-6.0095901 1.2724953-9.014389-1.6698608 5.235405-6.0565681 9.5206757-11.3295975 11.0676231 2.6268387-2.2116699 4.27808-5.5428658 4.447628-8.9725914-4.6586494 5.5822677-10.1862907 10.4378815-16.3225021 14.3380852 1.3858299-1.9729462 2.7716599-3.9458923 4.1574936-5.9188385-3.1213684 2.8170586-6.242733 5.6341133-9.3640995 8.4511719-1.9975414 1.8027954-4.0317669 3.6509972-5.3377895 6.0035553-1.3060226 2.352562-1.7747841 5.3434753-.5259457 7.7268829-2.0357723-1.2340012-3.289463-3.4935379-3.783987-5.8221741-.4945259-2.3286438-.3141756-4.7446213-.0337887-7.1086235.9655228-8.1404953 3.0973587-16.141758 6.3101673-23.6834946-.4542789 1.5363998-.9085579 3.0727997-1.3628368 4.6091957 4.008049-6.6644096 7.029089-13.9212914 8.9342651-21.4611263.0120907 2.9005013.0241833 5.8010025.036274 8.7015038 2.7034855-4.0271282 5.4069691-8.0542564 8.1104527-12.0813856-.6041374 1.4658499-1.2082748 2.9317007-1.8124123 4.3975515 3.2966957-2.8128586 6.5933914-5.6257143 9.8900909-8.4385719-5.4398117 9.1890316-10.8796234 18.3780632-16.3194351 27.5670948 6.9538193-8.1227074 13.9076347-16.2454147 20.861454-24.368124-.9898033 2.5726032-1.9796066 5.1452045-2.9694099 7.7178078 2.9116592-2.8316898 5.8233185-5.6633797 8.7349777-8.4950686-.0483932 1.0241518-.0967827 2.0483027-.1451759 3.0724535 1.783783-1.6885033 3.5675621-3.3770065 5.3513451-5.0655088.6067467 5.0868845 1.2134933 10.17377 1.8202438 15.2606554"/><path d="m70.4473877 23.8740845c1.788269 6.6272316 2.2805023 13.6015587 1.4408112 20.4142685.9412613-.8941116 1.8825226-1.7882233 2.8237762-2.6823349.6333313 3.0952034 1.2666626 6.1904106 1.8999863 9.2856178 1.056221-1.0624161 2.112442-2.1248283 3.168663-3.1872406.0617218 6.4748459.123436 12.9496918.1851501 19.4245338.9788513-2.8662109 1.957695-5.7324257 2.9365463-8.5986404.9971085 6.4048157-.4403076 13.1586533-3.959137 18.6023407 6.2416687-4.8149109 9.6179199-13.0935135 8.5237122-20.9002151-.2604904-1.8584938-.7524643-3.6756134-1.243248-5.4869614-.9005432-3.3236885-1.8010864-6.647377-2.7016296-9.9710617-.1070175.9600945-.2140274 1.9201927-.3210449 2.880291-1.6814346-5.9476471-3.3628616-11.8952961-5.0442886-17.8429432-.6310272 1.8171864-1.2620544 3.6343708-1.8930817 5.4515572-2.3682709-4.3543167-4.7365417-8.7086315-7.1048126-13.0629482 1.0016479 3.2325478 2.0033035 6.4650955 3.0049515 9.6976433"/></g></svg>