<?xml version="1.0" encoding="iso-8859-1"?>
<!-- Generator: Adobe Illustrator 16.0.0, SVG Export Plug-In . SVG Version: 6.00 Build 0)  -->
<!DOCTYPE svg PUBLIC "-//W3C//DTD SVG 1.1//EN" "http://www.w3.org/Graphics/SVG/1.1/DTD/svg11.dtd">
<svg version="1.1" id="Capa_1" xmlns="http://www.w3.org/2000/svg" xmlns:xlink="http://www.w3.org/1999/xlink" x="0px" y="0px"
	viewBox="0 0 570.885 570.886" style="enable-background:new 0 0 570.885 570.886;"
	 xml:space="preserve">
<g>
	<g>
		<path d="M65.563,287.793c11.542,3.538,23.768-2.945,27.315-14.482c0.01,0,32.689-106.545,32.689-106.545
			c0.191-0.45,1.171-2.319,3.452-2.319c0.206,0,4.604,0,4.604,0h0.009c1.301-0.02,2.061,1.085,1.717,2.333l-65.417,214.09
			c-0.354,1.248,0,3.429,2.276,3.429h45.896c1.3,0,2.252,1.052,2.252,2.353c0,0-0.01,155.974-0.01,156.026
			c0,15.577,12.627,28.199,28.2,28.199c15.573,0,28.2-12.627,28.2-28.199l0.009-156.031c0-1.301,1.052-2.353,2.353-2.353h0.038
			h4.509h0.038c1.301,0,2.353,1.052,2.353,2.353l0.01,156.031c0,15.577,12.627,28.199,28.2,28.199
			c12.039,0,22.314-7.549,26.359-18.168c-0.062-0.761-0.1-1.53-0.1-2.305c0-0.015,0.004-70.906,0.009-134.971
			c-4.279,5.265-10.892,8.578-18.437,8.578c-13.019,0-23.614-10.366-23.614-23.108V300.735c0-24.786,22.792-46.531,48.778-46.531
			h6.918l-26.717-87.439c-0.344-1.248,0.416-2.353,1.716-2.333h0.01c0,0,4.398,0,4.604,0c2.286,0,3.261,1.87,3.452,2.319
			c0,0,7.516,24.533,16.285,53.148c0.191-14.095,7.616-26.976,19.641-34.2l10.347-17.428c-2.788-9.118-4.537-14.822-4.537-14.822
			c-4.997-17.366-14.535-56.906-51.418-56.906h-92.187c-34.363,0-46.536,39.541-51.532,56.906
			c-0.105,0.368-32.751,106.966-32.766,107.009C47.523,272.02,54.017,284.25,65.563,287.793z"/>
		<path d="M477.019,167.96c0,0,0.019,133.536,0.028,133.541c0.01,12.072,9.797,21.854,21.87,21.854
			c12.077,0,21.869-9.792,21.869-21.869c0-0.067,0-150.155,0-151.943c0.005-29.931-23.017-52.948-51.796-52.948
			c-0.731,0-39.411,0-57.557,0c0,0-3.634,0-9.208,0c-18.141,0-56.82,0-57.557,0c-23.079,0-44.131,9.615-46.426,34.636
			c-1.722,18.761-2.391,34.473-2.391,34.473l12.685-19.197v19.675l11.828-19.923v43.371c5.781,4.935,10.003,11.36,12.288,18.489
			c2.232-22.481,3.982-40.153,3.982-40.153c0-1.257,1.019-2.275,2.276-2.275h4.633c1.258,0,2.271,1.018,2.271,2.275
			c0,0,0,36.414,0,86.531c23.858,2.587,43.806,23.089,43.806,46.249v100.167c0,12.957-10.332,23.108-23.523,23.108
			c-7.502,0-14.201-3.438-18.532-8.788v135.18c0,0.617-0.024,1.229-0.067,1.837c3.931,10.844,14.32,18.599,26.521,18.599
			c15.577,0,28.2-12.627,28.2-28.2c0-0.043,0-220.458,0-220.458c0-1.606,0.741-2.281,2.333-2.281h4.547
			c1.588,0,2.333,0.675,2.333,2.281c0,0,0,220.415,0,220.458c0,15.578,12.628,28.2,28.2,28.2s28.2-12.627,28.2-28.2
			c0-0.043,0-374.678,0-374.678c0-1.257,1.018-2.276,2.275-2.276h4.633C476,165.689,477.019,166.708,477.019,167.96z"/>
		<circle cx="406.835" cy="42.003" r="41.965"/>
		<circle cx="179.481" cy="41.965" r="41.965"/>
		<path d="M239.586,312.842h6.847c0.909,0,1.74,0.736,1.74,1.649c0,0-0.019,235.888-0.019,235.921
			c0,11.284,9.108,20.474,20.392,20.474s20.393-9.084,20.393-20.363c0-0.028,0-134.147,0-134.147c0-1.162,0.54-1.649,1.688-1.649
			h6.747c1.147,0,1.764,0.487,1.764,1.649c0,0,0.029,133.751,0.029,134.147c0,11.284,9.208,20.363,20.492,20.363
			c11.283,0,20.268-9.189,20.268-20.474c0-0.028,0-235.921,0-235.921c0-0.908,0.736-1.649,1.649-1.649h6.957
			c0.908,0,1.62,0.736,1.62,1.649c0,0-0.033,86.431-0.028,86.436c0.005,8.745,7.239,15.448,15.983,15.448
			c8.75,0,15.879-6.713,15.879-15.463c0-0.048,0-98.871,0-100.167c0-21.683-20.378-38.881-41.224-38.881c-0.531,0-92.977,0-93.508,0
			c-20.846,0-41.128,17.203-41.128,38.881c0,1.296,0,100.119,0,100.167c0,8.75,7.215,15.463,15.97,15.463
			c8.745,0,15.888-6.703,15.893-15.448l-0.019-86.431C237.961,313.578,238.678,312.842,239.586,312.842z"/>
		<path d="M278.697,191.365c-10.433,5.518-17.547,16.476-17.547,29.099c0,18.168,14.731,32.9,32.9,32.9
			c18.173,0,32.899-14.731,32.899-32.9c0-11.236-5.637-21.147-14.229-27.086v-19.264l-8.869,14.937
			c-0.971-0.301-1.956-0.559-2.965-0.77v-14.167l-8.09,13.479c-1.311,0.048-2.601,0.167-3.863,0.368v-13.847L278.697,191.365z"/>
	</g>
</g>
<g>
</g>
<g>
</g>
<g>
</g>
<g>
</g>
<g>
</g>
<g>
</g>
<g>
</g>
<g>
</g>
<g>
</g>
<g>
</g>
<g>
</g>
<g>
</g>
<g>
</g>
<g>
</g>
<g>
</g>
</svg>
