<svg height="512pt" viewBox="0 -76 512 512" width="512pt" xmlns="http://www.w3.org/2000/svg"><path d="m170 140c0-13.785156-11.214844-25-25-25s-25 11.214844-25 25 11.214844 25 25 25 25-11.214844 25-25zm0 0"/><path d="m145 195c-28.644531 0-52.242188 22.007812-54.773438 50h109.546876c-2.53125-27.992188-26.128907-50-54.773438-50zm0 0"/><path d="m467 0h-422c-24.8125 0-45 20.1875-45 45v270c0 24.8125 20.1875 45 45 45h422c24.8125 0 45-20.1875 45-45v-270c0-24.8125-20.1875-45-45-45zm-190 105h60c8.285156 0 15 6.714844 15 15s-6.714844 15-15 15h-60c-8.285156 0-15-6.714844-15-15s6.714844-15 15-15zm-47 155c0 8.285156-6.714844 15-15 15h-140c-8.285156 0-15-6.714844-15-15v-10c0-31.761719 17.523438-59.496094 43.398438-74.082031-8.335938-9.644531-13.398438-22.199219-13.398438-35.917969 0-30.328125 24.671875-55 55-55s55 24.671875 55 55c0 13.71875-5.0625 26.273438-13.398438 35.917969 25.875 14.585937 43.398438 42.320312 43.398438 74.082031zm207-5h-160c-8.285156 0-15-6.714844-15-15s6.714844-15 15-15h160c8.285156 0 15 6.714844 15 15s-6.714844 15-15 15zm0-60h-160c-8.285156 0-15-6.714844-15-15s6.714844-15 15-15h160c8.285156 0 15 6.714844 15 15s-6.714844 15-15 15zm0 0"/></svg>